<?xml version="1.0" standalone="no"?><!DOCTYPE svg PUBLIC "-//W3C//DTD SVG 1.1//EN" "http://www.w3.org/Graphics/SVG/1.1/DTD/svg11.dtd">
<svg viewBox="0 0 1024 1024" version="1.1" xmlns="http://www.w3.org/2000/svg"
     width="32" height="32"><path d="M652.426667 335.210667l-58.570667 101.44a116.906667 116.906667 0 0 1 33.216 81.696c0 32.384-13.12 61.717333-34.346667 82.944l57.834667 103.52-55.872 31.210666-57.888-103.605333a117.333333 117.333333 0 0 1-27.072 3.264c-53.696 0-98.858667-36.106667-112.8-85.333333H279.776v-64h117.152c13.941333-49.226667 59.114667-85.333333 112.8-85.333334 9.909333 0 19.477333 1.365333 28.672 3.68l58.602667-101.482666 55.424 32z m325.344 188.330666c0 55.882667-45.472 101.354667-101.354667 101.354667-0.778667 0-1.536-0.096-2.304-0.117333l-96.042667 166.357333c25.365333 47.893333 8.522667 107.818667-38.794666 135.136-46.613333 26.912-105.856 12.373333-135.136-31.968H402.773333c-30.346667 40.277333-86.773333 52.629333-131.530666 26.794667-46.581333-26.890667-63.616-85.386667-39.946667-132.896l-100.757333-174.528C80.554667 607.466667 41.706667 564.810667 41.706667 513.173333c0-55.882667 45.472-101.354667 101.354666-101.354666 0.693333 0 1.365333 0.085333 2.048 0.106666L241.290667 245.333333c-25.184-47.850667-8.32-107.626667 38.912-134.890666 48.394667-27.946667 110.506667-11.296 138.453333 37.098666 1.706667 2.954667 3.232 5.962667 4.608 9.013334h184.554667c0.661333-1.269333 1.237333-2.570667 1.962666-3.829334 27.946667-48.394667 90.048-65.045333 138.453334-37.098666 48.394667 27.946667 65.045333 90.058667 37.098666 138.453333a100.48 100.48 0 0 1-5.568 8.597333l92.213334 159.733334c1.482667-0.064 2.933333-0.224 4.426666-0.224 55.893333 0 101.365333 45.461333 101.365334 101.354666z m-164.714667 78.976a101.173333 101.173333 0 0 1-37.984-78.986666 101.173333 101.173333 0 0 1 36.490667-77.792L727.466667 300.074667c-26.026667 8.032-55.168 5.76-80.565334-8.906667a101.173333 101.173333 0 0 1-49.152-70.613333H429.589333c-6.037333 26.602667-22.592 50.752-48.021333 65.44-29.333333 16.938667-63.658667 17.408-92.405333 4.448l-82.922667 143.616a101.162667 101.162667 0 0 1 38.176 79.125333c0 36.405333-19.36 68.288-48.256 86.165333l82.272 142.506667c29.088-13.770667 64.234667-13.578667 94.154667 3.701333 31.488 18.186667 49.429333 50.837333 50.496 84.757334h164.565333c2.645333-32.032 20.384-62.325333 50.261333-79.573334 29.258667-16.896 63.488-17.397333 92.192-4.533333l82.954667-143.690667z" fill="#e6e6e6"></path></svg>